<svg xmlns="http://www.w3.org/2000/svg" xmlns:xlink="http://www.w3.org/1999/xlink" width="970" height="494.2"><rect width="970" height="494.2" rx="5" ry="5" class="a"/><svg y="0%" x="0%"><circle cx="20" cy="20" r="6" fill="#ff5f58"/><circle cx="40" cy="20" r="6" fill="#ffbd2e"/><circle cx="60" cy="20" r="6" fill="#18c132"/></svg><svg height="434.2" viewBox="0 0 93 43.42" width="930" x="15" xmlns="http://www.w3.org/2000/svg" xmlns:xlink="http://www.w3.org/1999/xlink" y="50"><style>@keyframes n{0%{transform:translateX(0)}1.68%{transform:translateX(-93px)}2.3%{transform:translateX(-372px)}5.85%{transform:translateX(-465px)}6.51%{transform:translateX(-558px)}8.28%{transform:translateX(-651px)}9.35%{transform:translateX(-744px)}10.69%{transform:translateX(-837px)}11.18%{transform:translateX(-930px)}11.83%{transform:translateX(-1023px)}15.02%{transform:translateX(-1116px)}15.03%{transform:translateX(-1209px)}15.06%{transform:translateX(-1302px)}20.27%{transform:translateX(-1395px)}21.2%{transform:translateX(-1488px)}26.16%{transform:translateX(-1674px)}29.68%{transform:translateX(-1767px)}30.7%{transform:translateX(-1860px)}34.82%{transform:translateX(-2139px)}40.63%{transform:translateX(-2232px)}41.55%{transform:translateX(-2325px)}45.68%{transform:translateX(-2511px)}49.28%{transform:translateX(-2604px)}50.58%{transform:translateX(-2697px)}53.89%{transform:translateX(-2883px)}57.08%{transform:translateX(-2976px)}58.42%{transform:translateX(-3069px)}63.58%{transform:translateX(-3255px)}66.19%{transform:translateX(-3348px)}67.13%{transform:translateX(-3441px)}71.88%{transform:translateX(-3720px)}75.75%{transform:translateX(-3813px)}78.81%{transform:translateX(-3906px)}82.48%{transform:translateX(-4371px)}83.18%{transform:translateX(-4557px)}99.97%{transform:translateX(-4650px)}}.a{fill:#282d35}.f,.g{white-space:pre}.f{fill:#a8cc8c;font-weight:700}.g{fill:#66c2cd}.g,.h,.i{font-weight:700}.h{fill:#71bef2;white-space:pre}.i{fill:#e88388}.i,.j,.k{white-space:pre}.j{fill:#dbab79;font-weight:700}.k{fill:#b9c0cb}</style><g font-family="Monaco,Consolas,Menlo,'Bitstream Vera Sans Mono','Powerline Symbols',monospace" font-size="1.67"><defs><symbol id="1"><text y="1.67" class="f">➜</text><text x="3.006" y="1.67" class="g">tic-tac-toe</text><text x="15.03" y="1.67" class="h">git:(</text><text x="20.04" y="1.67" class="i">main</text><text x="24.048" y="1.67" class="h">)</text><text x="26.052" y="1.67" class="j">✗</text></symbol><symbol id="2"><text y="1.67" class="f">➜</text><text x="3.006" y="1.67" class="g">tic-tac-toe</text><text x="15.03" y="1.67" class="h">git:(</text><text x="20.04" y="1.67" class="i">main</text><text x="24.048" y="1.67" class="h">)</text><text x="26.052" y="1.67" class="j">✗</text><text x="28.056" y="1.67" class="k">./a.out</text></symbol><symbol id="3"><text y="1.67" class="k">*********************</text></symbol><symbol id="4"><text y="1.67" class="k">****</text><text x="5.01" y="1.67" class="k">TIC-TAC-TOE</text><text x="17.034" y="1.67" class="k">****</text></symbol><symbol id="5"><text x="6.012" y="1.67" class="k">-</text><text x="8.016" y="1.67" class="k">|</text><text x="10.02" y="1.67" class="k">-</text><text x="12.024" y="1.67" class="k">|</text><text x="14.028" y="1.67" class="k">-</text></symbol><symbol id="6"><text y="1.67" class="k">Player</text><text x="7.014" y="1.67" class="k">1,</text><text x="10.02" y="1.67" class="k">where</text><text x="16.032" y="1.67" class="k">would</text><text x="22.044" y="1.67" class="k">you</text><text x="26.052" y="1.67" class="k">like</text><text x="31.062" y="1.67" class="k">to</text><text x="34.068" y="1.67" class="k">place</text><text x="40.08" y="1.67" class="k">an</text><text x="43.086" y="1.67" class="k">x:</text></symbol><symbol id="7"><text y="1.67" class="k">Player</text><text x="7.014" y="1.67" class="k">1,</text><text x="10.02" y="1.67" class="k">where</text><text x="16.032" y="1.67" class="k">would</text><text x="22.044" y="1.67" class="k">you</text><text x="26.052" y="1.67" class="k">like</text><text x="31.062" y="1.67" class="k">to</text><text x="34.068" y="1.67" class="k">place</text><text x="40.08" y="1.67" class="k">an</text><text x="43.086" y="1.67" class="k">x:</text><text x="46.092" y="1.67" class="k">00</text></symbol><symbol id="8"><text x="6.012" y="1.67" class="k">x</text><text x="8.016" y="1.67" class="k">|</text><text x="10.02" y="1.67" class="k">-</text><text x="12.024" y="1.67" class="k">|</text><text x="14.028" y="1.67" class="k">-</text></symbol><symbol id="9"><text y="1.67" class="k">Player</text><text x="7.014" y="1.67" class="k">2,</text><text x="10.02" y="1.67" class="k">where</text><text x="16.032" y="1.67" class="k">would</text><text x="22.044" y="1.67" class="k">you</text><text x="26.052" y="1.67" class="k">like</text><text x="31.062" y="1.67" class="k">to</text><text x="34.068" y="1.67" class="k">place</text><text x="40.08" y="1.67" class="k">an</text><text x="43.086" y="1.67" class="k">o:</text></symbol><symbol id="10"><text y="1.67" class="k">Player</text><text x="7.014" y="1.67" class="k">2,</text><text x="10.02" y="1.67" class="k">where</text><text x="16.032" y="1.67" class="k">would</text><text x="22.044" y="1.67" class="k">you</text><text x="26.052" y="1.67" class="k">like</text><text x="31.062" y="1.67" class="k">to</text><text x="34.068" y="1.67" class="k">place</text><text x="40.08" y="1.67" class="k">an</text><text x="43.086" y="1.67" class="k">o:</text><text x="46.092" y="1.67" class="k">2</text></symbol><symbol id="11"><text y="1.67" class="k">Player</text><text x="7.014" y="1.67" class="k">2,</text><text x="10.02" y="1.67" class="k">where</text><text x="16.032" y="1.67" class="k">would</text><text x="22.044" y="1.67" class="k">you</text><text x="26.052" y="1.67" class="k">like</text><text x="31.062" y="1.67" class="k">to</text><text x="34.068" y="1.67" class="k">place</text><text x="40.08" y="1.67" class="k">an</text><text x="43.086" y="1.67" class="k">o:</text><text x="46.092" y="1.67" class="k">21</text></symbol><symbol id="12"><text x="6.012" y="1.67" class="k">-</text><text x="8.016" y="1.67" class="k">|</text><text x="10.02" y="1.67" class="k">o</text><text x="12.024" y="1.67" class="k">|</text><text x="14.028" y="1.67" class="k">-</text></symbol><symbol id="13"><text y="1.67" class="k">Player</text><text x="7.014" y="1.67" class="k">1,</text><text x="10.02" y="1.67" class="k">where</text><text x="16.032" y="1.67" class="k">would</text><text x="22.044" y="1.67" class="k">you</text><text x="26.052" y="1.67" class="k">like</text><text x="31.062" y="1.67" class="k">to</text><text x="34.068" y="1.67" class="k">place</text><text x="40.08" y="1.67" class="k">an</text><text x="43.086" y="1.67" class="k">x:</text><text x="46.092" y="1.67" class="k">1</text></symbol><symbol id="14"><text y="1.67" class="k">Player</text><text x="7.014" y="1.67" class="k">1,</text><text x="10.02" y="1.67" class="k">where</text><text x="16.032" y="1.67" class="k">would</text><text x="22.044" y="1.67" class="k">you</text><text x="26.052" y="1.67" class="k">like</text><text x="31.062" y="1.67" class="k">to</text><text x="34.068" y="1.67" class="k">place</text><text x="40.08" y="1.67" class="k">an</text><text x="43.086" y="1.67" class="k">x:</text><text x="46.092" y="1.67" class="k">11</text></symbol><symbol id="15"><text x="6.012" y="1.67" class="k">-</text><text x="8.016" y="1.67" class="k">|</text><text x="10.02" y="1.67" class="k">x</text><text x="12.024" y="1.67" class="k">|</text><text x="14.028" y="1.67" class="k">-</text></symbol><symbol id="16"><text y="1.67" class="k">Player</text><text x="7.014" y="1.67" class="k">2,</text><text x="10.02" y="1.67" class="k">where</text><text x="16.032" y="1.67" class="k">would</text><text x="22.044" y="1.67" class="k">you</text><text x="26.052" y="1.67" class="k">like</text><text x="31.062" y="1.67" class="k">to</text><text x="34.068" y="1.67" class="k">place</text><text x="40.08" y="1.67" class="k">an</text><text x="43.086" y="1.67" class="k">o:</text><text x="46.092" y="1.67" class="k">22</text></symbol><symbol id="17"><text x="6.012" y="1.67" class="k">-</text><text x="8.016" y="1.67" class="k">|</text><text x="10.02" y="1.67" class="k">o</text><text x="12.024" y="1.67" class="k">|</text><text x="14.028" y="1.67" class="k">o</text></symbol><symbol id="18"><text y="1.67" class="k">Player</text><text x="7.014" y="1.67" class="k">1,</text><text x="10.02" y="1.67" class="k">where</text><text x="16.032" y="1.67" class="k">would</text><text x="22.044" y="1.67" class="k">you</text><text x="26.052" y="1.67" class="k">like</text><text x="31.062" y="1.67" class="k">to</text><text x="34.068" y="1.67" class="k">place</text><text x="40.08" y="1.67" class="k">an</text><text x="43.086" y="1.67" class="k">x:</text><text x="46.092" y="1.67" class="k">20</text></symbol><symbol id="19"><text x="6.012" y="1.67" class="k">x</text><text x="8.016" y="1.67" class="k">|</text><text x="10.02" y="1.67" class="k">o</text><text x="12.024" y="1.67" class="k">|</text><text x="14.028" y="1.67" class="k">o</text></symbol><symbol id="20"><text y="1.67" class="k">Player</text><text x="7.014" y="1.67" class="k">2,</text><text x="10.02" y="1.67" class="k">where</text><text x="16.032" y="1.67" class="k">would</text><text x="22.044" y="1.67" class="k">you</text><text x="26.052" y="1.67" class="k">like</text><text x="31.062" y="1.67" class="k">to</text><text x="34.068" y="1.67" class="k">place</text><text x="40.08" y="1.67" class="k">an</text><text x="43.086" y="1.67" class="k">o:</text><text x="46.092" y="1.67" class="k">02</text></symbol><symbol id="21"><text x="6.012" y="1.67" class="k">x</text><text x="8.016" y="1.67" class="k">|</text><text x="10.02" y="1.67" class="k">-</text><text x="12.024" y="1.67" class="k">|</text><text x="14.028" y="1.67" class="k">o</text></symbol><symbol id="22"><text y="1.67" class="k">Player</text><text x="7.014" y="1.67" class="k">1,</text><text x="10.02" y="1.67" class="k">where</text><text x="16.032" y="1.67" class="k">would</text><text x="22.044" y="1.67" class="k">you</text><text x="26.052" y="1.67" class="k">like</text><text x="31.062" y="1.67" class="k">to</text><text x="34.068" y="1.67" class="k">place</text><text x="40.08" y="1.67" class="k">an</text><text x="43.086" y="1.67" class="k">x:</text><text x="46.092" y="1.67" class="k">10</text></symbol><symbol id="23"><text x="6.012" y="1.67" class="k">x</text><text x="8.016" y="1.67" class="k">|</text><text x="10.02" y="1.67" class="k">x</text><text x="12.024" y="1.67" class="k">|</text><text x="14.028" y="1.67" class="k">-</text></symbol><symbol id="24"><text y="1.67" class="k">~~~~~</text><text x="6.012" y="1.67" class="k">Game</text><text x="11.022" y="1.67" class="k">Over</text><text x="16.032" y="1.67" class="k">~~~~~</text></symbol><symbol id="25"><text y="1.67" class="k">Winner:</text><text x="13.026" y="1.67" class="k">Player</text><text x="20.04" y="1.67" class="k">1</text></symbol><symbol id="a"><path fill="transparent" d="M0 0h93v20H0z"/></symbol><symbol id="b"><path fill="#6f7683" d="M0 0h1.102v2.171H0z"/></symbol></defs><path class="a" d="M0 0h93v43.42H0z"/><g style="animation-duration:18.11498s;animation-iteration-count:infinite;animation-name:n;animation-timing-function:steps(1,end)"><svg width="4743"><svg><use xlink:href="#a"/><use xlink:href="#b" x="-.004"/></svg><svg x="93"><use xlink:href="#a"/><use xlink:href="#b" x="-.004"/></svg><svg x="186"><use xlink:href="#a"/><use xlink:href="#b" x="27.996"/><use xlink:href="#1"/></svg><svg x="279"><use xlink:href="#a"/><use xlink:href="#b" x="27.996"/><use xlink:href="#1"/></svg><svg x="372"><use xlink:href="#a"/><use xlink:href="#b" x="27.996"/><use xlink:href="#1"/></svg><svg x="465"><use xlink:href="#a"/><use xlink:href="#b" x="28.996"/><text y="1.67" class="f">➜</text><text x="3.006" y="1.67" class="g">tic-tac-toe</text><text x="15.03" y="1.67" class="h">git:(</text><text x="20.04" y="1.67" class="i">main</text><text x="24.048" y="1.67" class="h">)</text><text x="26.052" y="1.67" class="j">✗</text><text x="28.056" y="1.67" class="k">.</text></svg><svg x="558"><use xlink:href="#a"/><use xlink:href="#b" x="29.996"/><text y="1.67" class="f">➜</text><text x="3.006" y="1.67" class="g">tic-tac-toe</text><text x="15.03" y="1.67" class="h">git:(</text><text x="20.04" y="1.67" class="i">main</text><text x="24.048" y="1.67" class="h">)</text><text x="26.052" y="1.67" class="j">✗</text><text x="28.056" y="1.67" class="k">./</text></svg><svg x="651"><use xlink:href="#a"/><use xlink:href="#b" x="30.996"/><text y="1.67" class="f">➜</text><text x="3.006" y="1.67" class="g">tic-tac-toe</text><text x="15.03" y="1.67" class="h">git:(</text><text x="20.04" y="1.67" class="i">main</text><text x="24.048" y="1.67" class="h">)</text><text x="26.052" y="1.67" class="j">✗</text><text x="28.056" y="1.67" class="k">./a</text></svg><svg x="744"><use xlink:href="#a"/><use xlink:href="#b" x="31.996"/><text y="1.67" class="f">➜</text><text x="3.006" y="1.67" class="g">tic-tac-toe</text><text x="15.03" y="1.67" class="h">git:(</text><text x="20.04" y="1.67" class="i">main</text><text x="24.048" y="1.67" class="h">)</text><text x="26.052" y="1.67" class="j">✗</text><text x="28.056" y="1.67" class="k">./a.</text></svg><svg x="837"><use xlink:href="#a"/><use xlink:href="#b" x="32.996"/><text y="1.67" class="f">➜</text><text x="3.006" y="1.67" class="g">tic-tac-toe</text><text x="15.03" y="1.67" class="h">git:(</text><text x="20.04" y="1.67" class="i">main</text><text x="24.048" y="1.67" class="h">)</text><text x="26.052" y="1.67" class="j">✗</text><text x="28.056" y="1.67" class="k">./a.o</text></svg><svg x="930"><use xlink:href="#a"/><use xlink:href="#b" x="33.996"/><text y="1.67" class="f">➜</text><text x="3.006" y="1.67" class="g">tic-tac-toe</text><text x="15.03" y="1.67" class="h">git:(</text><text x="20.04" y="1.67" class="i">main</text><text x="24.048" y="1.67" class="h">)</text><text x="26.052" y="1.67" class="j">✗</text><text x="28.056" y="1.67" class="k">./a.ou</text></svg><svg x="1023"><use xlink:href="#a"/><use xlink:href="#b" x="34.996"/><use xlink:href="#2"/></svg><svg x="1116"><use xlink:href="#a"/><use xlink:href="#b" x="-.004" y="2.146"/><use xlink:href="#2"/></svg><svg x="1209"><use xlink:href="#a"/><use xlink:href="#b" x="-.004" y="2.146"/><use xlink:href="#2"/></svg><svg x="1302"><use xlink:href="#a"/><use xlink:href="#b" x="45.996" y="19.514"/><use xlink:href="#2"/><use xlink:href="#3" y="2.171"/><use xlink:href="#4" y="4.342"/><use xlink:href="#3" y="6.513"/><use xlink:href="#5" y="10.855"/><use xlink:href="#5" y="13.026"/><use xlink:href="#5" y="15.197"/><use xlink:href="#6" y="19.539"/></svg><svg x="1395"><use xlink:href="#a"/><use xlink:href="#b" x="46.996" y="19.514"/><use xlink:href="#2"/><use xlink:href="#3" y="2.171"/><use xlink:href="#4" y="4.342"/><use xlink:href="#3" y="6.513"/><use xlink:href="#5" y="10.855"/><use xlink:href="#5" y="13.026"/><use xlink:href="#5" y="15.197"/><text y="21.209" class="k">Player</text><text x="7.014" y="21.209" class="k">1,</text><text x="10.02" y="21.209" class="k">where</text><text x="16.032" y="21.209" class="k">would</text><text x="22.044" y="21.209" class="k">you</text><text x="26.052" y="21.209" class="k">like</text><text x="31.062" y="21.209" class="k">to</text><text x="34.068" y="21.209" class="k">place</text><text x="40.08" y="21.209" class="k">an</text><text x="43.086" y="21.209" class="k">x:</text><text x="46.092" y="21.209" class="k">0</text></svg><svg x="1488"><use xlink:href="#a"/><use xlink:href="#b" x="47.996" y="19.514"/><use xlink:href="#2"/><use xlink:href="#3" y="2.171"/><use xlink:href="#4" y="4.342"/><use xlink:href="#3" y="6.513"/><use xlink:href="#5" y="10.855"/><use xlink:href="#5" y="13.026"/><use xlink:href="#5" y="15.197"/><use xlink:href="#7" y="19.539"/></svg><svg x="1581"><use xlink:href="#a"/><use xlink:href="#b" x="-.004" y="21.685"/><use xlink:href="#2"/><use xlink:href="#3" y="2.171"/><use xlink:href="#4" y="4.342"/><use xlink:href="#3" y="6.513"/><use xlink:href="#5" y="10.855"/><use xlink:href="#5" y="13.026"/><use xlink:href="#5" y="15.197"/><use xlink:href="#7" y="19.539"/></svg><svg x="1674"><use xlink:href="#a"/><use xlink:href="#b" x="45.996" y="32.54"/><use xlink:href="#2"/><use xlink:href="#3" y="2.171"/><use xlink:href="#4" y="4.342"/><use xlink:href="#3" y="6.513"/><use xlink:href="#5" y="10.855"/><use xlink:href="#5" y="13.026"/><use xlink:href="#5" y="15.197"/><use xlink:href="#7" y="19.539"/><use xlink:href="#8" y="23.881"/><use xlink:href="#5" y="26.052"/><use xlink:href="#5" y="28.223"/><use xlink:href="#9" y="32.565"/></svg><svg x="1767"><use xlink:href="#a"/><use xlink:href="#b" x="46.996" y="32.54"/><use xlink:href="#2"/><use xlink:href="#3" y="2.171"/><use xlink:href="#4" y="4.342"/><use xlink:href="#3" y="6.513"/><use xlink:href="#5" y="10.855"/><use xlink:href="#5" y="13.026"/><use xlink:href="#5" y="15.197"/><use xlink:href="#7" y="19.539"/><use xlink:href="#8" y="23.881"/><use xlink:href="#5" y="26.052"/><use xlink:href="#5" y="28.223"/><use xlink:href="#10" y="32.565"/></svg><svg x="1860"><use xlink:href="#a"/><use xlink:href="#b" x="47.996" y="32.54"/><use xlink:href="#2"/><use xlink:href="#3" y="2.171"/><use xlink:href="#4" y="4.342"/><use xlink:href="#3" y="6.513"/><use xlink:href="#5" y="10.855"/><use xlink:href="#5" y="13.026"/><use xlink:href="#5" y="15.197"/><use xlink:href="#7" y="19.539"/><use xlink:href="#8" y="23.881"/><use xlink:href="#5" y="26.052"/><use xlink:href="#5" y="28.223"/><use xlink:href="#11" y="32.565"/></svg><svg x="1953"><use xlink:href="#a"/><use xlink:href="#b" x="-.004" y="36.882"/><use xlink:href="#2"/><use xlink:href="#3" y="2.171"/><use xlink:href="#4" y="4.342"/><use xlink:href="#3" y="6.513"/><use xlink:href="#5" y="10.855"/><use xlink:href="#5" y="13.026"/><use xlink:href="#5" y="15.197"/><use xlink:href="#7" y="19.539"/><use xlink:href="#8" y="23.881"/><use xlink:href="#5" y="26.052"/><use xlink:href="#5" y="28.223"/><use xlink:href="#11" y="32.565"/></svg><svg x="2046"><use xlink:href="#a"/><use xlink:href="#b" x="-.004" y="41.224"/><use xlink:href="#4"/><use xlink:href="#3" y="2.171"/><use xlink:href="#5" y="6.513"/><use xlink:href="#5" y="8.684"/><use xlink:href="#5" y="10.855"/><use xlink:href="#7" y="15.197"/><use xlink:href="#8" y="19.539"/><use xlink:href="#5" y="21.71"/><use xlink:href="#5" y="23.881"/><use xlink:href="#11" y="28.223"/><use xlink:href="#8" y="32.565"/><use xlink:href="#5" y="34.736"/><use xlink:href="#12" y="36.907"/></svg><svg x="2139"><use xlink:href="#a"/><use xlink:href="#b" x="45.996" y="41.224"/><use xlink:href="#4"/><use xlink:href="#3" y="2.171"/><use xlink:href="#5" y="6.513"/><use xlink:href="#5" y="8.684"/><use xlink:href="#5" y="10.855"/><use xlink:href="#7" y="15.197"/><use xlink:href="#8" y="19.539"/><use xlink:href="#5" y="21.71"/><use xlink:href="#5" y="23.881"/><use xlink:href="#11" y="28.223"/><use xlink:href="#8" y="32.565"/><use xlink:href="#5" y="34.736"/><use xlink:href="#12" y="36.907"/><use xlink:href="#6" y="41.249"/></svg><svg x="2232"><use xlink:href="#a"/><use xlink:href="#b" x="46.996" y="41.224"/><use xlink:href="#4"/><use xlink:href="#3" y="2.171"/><use xlink:href="#5" y="6.513"/><use xlink:href="#5" y="8.684"/><use xlink:href="#5" y="10.855"/><use xlink:href="#7" y="15.197"/><use xlink:href="#8" y="19.539"/><use xlink:href="#5" y="21.71"/><use xlink:href="#5" y="23.881"/><use xlink:href="#11" y="28.223"/><use xlink:href="#8" y="32.565"/><use xlink:href="#5" y="34.736"/><use xlink:href="#12" y="36.907"/><use xlink:href="#13" y="41.249"/></svg><svg x="2325"><use xlink:href="#a"/><use xlink:href="#b" x="47.996" y="41.224"/><use xlink:href="#4"/><use xlink:href="#3" y="2.171"/><use xlink:href="#5" y="6.513"/><use xlink:href="#5" y="8.684"/><use xlink:href="#5" y="10.855"/><use xlink:href="#7" y="15.197"/><use xlink:href="#8" y="19.539"/><use xlink:href="#5" y="21.71"/><use xlink:href="#5" y="23.881"/><use xlink:href="#11" y="28.223"/><use xlink:href="#8" y="32.565"/><use xlink:href="#5" y="34.736"/><use xlink:href="#12" y="36.907"/><use xlink:href="#14" y="41.249"/></svg><svg x="2418"><use xlink:href="#a"/><use xlink:href="#b" x="-.004" y="41.224"/><use xlink:href="#3"/><use xlink:href="#5" y="4.342"/><use xlink:href="#5" y="6.513"/><use xlink:href="#5" y="8.684"/><use xlink:href="#7" y="13.026"/><use xlink:href="#8" y="17.368"/><use xlink:href="#5" y="19.539"/><use xlink:href="#5" y="21.71"/><use xlink:href="#11" y="26.052"/><use xlink:href="#8" y="30.394"/><use xlink:href="#5" y="32.565"/><use xlink:href="#12" y="34.736"/><use xlink:href="#14" y="39.078"/></svg><svg x="2511"><use xlink:href="#a"/><use xlink:href="#b" x="45.996" y="41.224"/><use xlink:href="#7" y="2.171"/><use xlink:href="#8" y="6.513"/><use xlink:href="#5" y="8.684"/><use xlink:href="#5" y="10.855"/><use xlink:href="#11" y="15.197"/><use xlink:href="#8" y="19.539"/><use xlink:href="#5" y="21.71"/><use xlink:href="#12" y="23.881"/><use xlink:href="#14" y="28.223"/><use xlink:href="#8" y="32.565"/><use xlink:href="#15" y="34.736"/><use xlink:href="#12" y="36.907"/><use xlink:href="#9" y="41.249"/></svg><svg x="2604"><use xlink:href="#a"/><use xlink:href="#b" x="46.996" y="41.224"/><use xlink:href="#7" y="2.171"/><use xlink:href="#8" y="6.513"/><use xlink:href="#5" y="8.684"/><use xlink:href="#5" y="10.855"/><use xlink:href="#11" y="15.197"/><use xlink:href="#8" y="19.539"/><use xlink:href="#5" y="21.71"/><use xlink:href="#12" y="23.881"/><use xlink:href="#14" y="28.223"/><use xlink:href="#8" y="32.565"/><use xlink:href="#15" y="34.736"/><use xlink:href="#12" y="36.907"/><use xlink:href="#10" y="41.249"/></svg><svg x="2697"><use xlink:href="#a"/><use xlink:href="#b" x="47.996" y="41.224"/><use xlink:href="#7" y="2.171"/><use xlink:href="#8" y="6.513"/><use xlink:href="#5" y="8.684"/><use xlink:href="#5" y="10.855"/><use xlink:href="#11" y="15.197"/><use xlink:href="#8" y="19.539"/><use xlink:href="#5" y="21.71"/><use xlink:href="#12" y="23.881"/><use xlink:href="#14" y="28.223"/><use xlink:href="#8" y="32.565"/><use xlink:href="#15" y="34.736"/><use xlink:href="#12" y="36.907"/><use xlink:href="#16" y="41.249"/></svg><svg x="2790"><use xlink:href="#a"/><use xlink:href="#b" x="-.004" y="41.224"/><use xlink:href="#11" y="2.171"/><use xlink:href="#8" y="6.513"/><use xlink:href="#5" y="8.684"/><use xlink:href="#12" y="10.855"/><use xlink:href="#14" y="15.197"/><use xlink:href="#8" y="19.539"/><use xlink:href="#15" y="21.71"/><use xlink:href="#12" y="23.881"/><use xlink:href="#16" y="28.223"/><use xlink:href="#8" y="32.565"/><use xlink:href="#15" y="34.736"/><use xlink:href="#17" y="36.907"/></svg><svg x="2883"><use xlink:href="#a"/><use xlink:href="#b" x="45.996" y="41.224"/><use xlink:href="#11" y="2.171"/><use xlink:href="#8" y="6.513"/><use xlink:href="#5" y="8.684"/><use xlink:href="#12" y="10.855"/><use xlink:href="#14" y="15.197"/><use xlink:href="#8" y="19.539"/><use xlink:href="#15" y="21.71"/><use xlink:href="#12" y="23.881"/><use xlink:href="#16" y="28.223"/><use xlink:href="#8" y="32.565"/><use xlink:href="#15" y="34.736"/><use xlink:href="#17" y="36.907"/><use xlink:href="#6" y="41.249"/></svg><svg x="2976"><use xlink:href="#a"/><use xlink:href="#b" x="46.996" y="41.224"/><use xlink:href="#11" y="2.171"/><use xlink:href="#8" y="6.513"/><use xlink:href="#5" y="8.684"/><use xlink:href="#12" y="10.855"/><use xlink:href="#14" y="15.197"/><use xlink:href="#8" y="19.539"/><use xlink:href="#15" y="21.71"/><use xlink:href="#12" y="23.881"/><use xlink:href="#16" y="28.223"/><use xlink:href="#8" y="32.565"/><use xlink:href="#15" y="34.736"/><use xlink:href="#17" y="36.907"/><text y="42.919" class="k">Player</text><text x="7.014" y="42.919" class="k">1,</text><text x="10.02" y="42.919" class="k">where</text><text x="16.032" y="42.919" class="k">would</text><text x="22.044" y="42.919" class="k">you</text><text x="26.052" y="42.919" class="k">like</text><text x="31.062" y="42.919" class="k">to</text><text x="34.068" y="42.919" class="k">place</text><text x="40.08" y="42.919" class="k">an</text><text x="43.086" y="42.919" class="k">x:</text><text x="46.092" y="42.919" class="k">2</text></svg><svg x="3069"><use xlink:href="#a"/><use xlink:href="#b" x="47.996" y="41.224"/><use xlink:href="#11" y="2.171"/><use xlink:href="#8" y="6.513"/><use xlink:href="#5" y="8.684"/><use xlink:href="#12" y="10.855"/><use xlink:href="#14" y="15.197"/><use xlink:href="#8" y="19.539"/><use xlink:href="#15" y="21.71"/><use xlink:href="#12" y="23.881"/><use xlink:href="#16" y="28.223"/><use xlink:href="#8" y="32.565"/><use xlink:href="#15" y="34.736"/><use xlink:href="#17" y="36.907"/><use xlink:href="#18" y="41.249"/></svg><svg x="3162"><use xlink:href="#a"/><use xlink:href="#b" x="-.004" y="41.224"/><use xlink:href="#11"/><use xlink:href="#8" y="4.342"/><use xlink:href="#5" y="6.513"/><use xlink:href="#12" y="8.684"/><use xlink:href="#14" y="13.026"/><use xlink:href="#8" y="17.368"/><use xlink:href="#15" y="19.539"/><use xlink:href="#12" y="21.71"/><use xlink:href="#16" y="26.052"/><use xlink:href="#8" y="30.394"/><use xlink:href="#15" y="32.565"/><use xlink:href="#17" y="34.736"/><use xlink:href="#18" y="39.078"/></svg><svg x="3255"><use xlink:href="#a"/><use xlink:href="#b" x="45.996" y="41.224"/><use xlink:href="#14" y="2.171"/><use xlink:href="#8" y="6.513"/><use xlink:href="#15" y="8.684"/><use xlink:href="#12" y="10.855"/><use xlink:href="#16" y="15.197"/><use xlink:href="#8" y="19.539"/><use xlink:href="#15" y="21.71"/><use xlink:href="#17" y="23.881"/><use xlink:href="#18" y="28.223"/><use xlink:href="#8" y="32.565"/><use xlink:href="#15" y="34.736"/><use xlink:href="#19" y="36.907"/><use xlink:href="#9" y="41.249"/></svg><svg x="3348"><use xlink:href="#a"/><use xlink:href="#b" x="46.996" y="41.224"/><use xlink:href="#14" y="2.171"/><use xlink:href="#8" y="6.513"/><use xlink:href="#15" y="8.684"/><use xlink:href="#12" y="10.855"/><use xlink:href="#16" y="15.197"/><use xlink:href="#8" y="19.539"/><use xlink:href="#15" y="21.71"/><use xlink:href="#17" y="23.881"/><use xlink:href="#18" y="28.223"/><use xlink:href="#8" y="32.565"/><use xlink:href="#15" y="34.736"/><use xlink:href="#19" y="36.907"/><text y="42.919" class="k">Player</text><text x="7.014" y="42.919" class="k">2,</text><text x="10.02" y="42.919" class="k">where</text><text x="16.032" y="42.919" class="k">would</text><text x="22.044" y="42.919" class="k">you</text><text x="26.052" y="42.919" class="k">like</text><text x="31.062" y="42.919" class="k">to</text><text x="34.068" y="42.919" class="k">place</text><text x="40.08" y="42.919" class="k">an</text><text x="43.086" y="42.919" class="k">o:</text><text x="46.092" y="42.919" class="k">0</text></svg><svg x="3441"><use xlink:href="#a"/><use xlink:href="#b" x="47.996" y="41.224"/><use xlink:href="#14" y="2.171"/><use xlink:href="#8" y="6.513"/><use xlink:href="#15" y="8.684"/><use xlink:href="#12" y="10.855"/><use xlink:href="#16" y="15.197"/><use xlink:href="#8" y="19.539"/><use xlink:href="#15" y="21.71"/><use xlink:href="#17" y="23.881"/><use xlink:href="#18" y="28.223"/><use xlink:href="#8" y="32.565"/><use xlink:href="#15" y="34.736"/><use xlink:href="#19" y="36.907"/><use xlink:href="#20" y="41.249"/></svg><svg x="3534"><use xlink:href="#a"/><use xlink:href="#b" x="-.004" y="41.224"/><use xlink:href="#14"/><use xlink:href="#8" y="4.342"/><use xlink:href="#15" y="6.513"/><use xlink:href="#12" y="8.684"/><use xlink:href="#16" y="13.026"/><use xlink:href="#8" y="17.368"/><use xlink:href="#15" y="19.539"/><use xlink:href="#17" y="21.71"/><use xlink:href="#18" y="26.052"/><use xlink:href="#8" y="30.394"/><use xlink:href="#15" y="32.565"/><use xlink:href="#19" y="34.736"/><use xlink:href="#20" y="39.078"/></svg><svg x="3627"><use xlink:href="#a"/><use xlink:href="#b" x="-.004" y="41.224"/><use xlink:href="#8" y="2.171"/><use xlink:href="#15" y="4.342"/><use xlink:href="#12" y="6.513"/><use xlink:href="#16" y="10.855"/><use xlink:href="#8" y="15.197"/><use xlink:href="#15" y="17.368"/><use xlink:href="#17" y="19.539"/><use xlink:href="#18" y="23.881"/><use xlink:href="#8" y="28.223"/><use xlink:href="#15" y="30.394"/><use xlink:href="#19" y="32.565"/><use xlink:href="#20" y="36.907"/></svg><svg x="3720"><use xlink:href="#a"/><use xlink:href="#b" x="45.996" y="41.224"/><use xlink:href="#16" y="2.171"/><use xlink:href="#8" y="6.513"/><use xlink:href="#15" y="8.684"/><use xlink:href="#17" y="10.855"/><use xlink:href="#18" y="15.197"/><use xlink:href="#8" y="19.539"/><use xlink:href="#15" y="21.71"/><use xlink:href="#19" y="23.881"/><use xlink:href="#20" y="28.223"/><use xlink:href="#21" y="32.565"/><use xlink:href="#15" y="34.736"/><use xlink:href="#19" y="36.907"/><use xlink:href="#6" y="41.249"/></svg><svg x="3813"><use xlink:href="#a"/><use xlink:href="#b" x="46.996" y="41.224"/><use xlink:href="#16" y="2.171"/><use xlink:href="#8" y="6.513"/><use xlink:href="#15" y="8.684"/><use xlink:href="#17" y="10.855"/><use xlink:href="#18" y="15.197"/><use xlink:href="#8" y="19.539"/><use xlink:href="#15" y="21.71"/><use xlink:href="#19" y="23.881"/><use xlink:href="#20" y="28.223"/><use xlink:href="#21" y="32.565"/><use xlink:href="#15" y="34.736"/><use xlink:href="#19" y="36.907"/><use xlink:href="#13" y="41.249"/></svg><svg x="3906"><use xlink:href="#a"/><use xlink:href="#b" x="47.996" y="41.224"/><use xlink:href="#16" y="2.171"/><use xlink:href="#8" y="6.513"/><use xlink:href="#15" y="8.684"/><use xlink:href="#17" y="10.855"/><use xlink:href="#18" y="15.197"/><use xlink:href="#8" y="19.539"/><use xlink:href="#15" y="21.71"/><use xlink:href="#19" y="23.881"/><use xlink:href="#20" y="28.223"/><use xlink:href="#21" y="32.565"/><use xlink:href="#15" y="34.736"/><use xlink:href="#19" y="36.907"/><use xlink:href="#22" y="41.249"/></svg><svg x="3999"><use xlink:href="#a"/><use xlink:href="#b" x="-.004" y="41.224"/><use xlink:href="#8" y="2.171"/><use xlink:href="#15" y="4.342"/><use xlink:href="#17" y="6.513"/><use xlink:href="#18" y="10.855"/><use xlink:href="#8" y="15.197"/><use xlink:href="#15" y="17.368"/><use xlink:href="#19" y="19.539"/><use xlink:href="#20" y="23.881"/><use xlink:href="#21" y="28.223"/><use xlink:href="#15" y="30.394"/><use xlink:href="#19" y="32.565"/><use xlink:href="#22" y="36.907"/></svg><svg x="4092"><use xlink:href="#a"/><use xlink:href="#b" x="-.004" y="41.224"/><use xlink:href="#18" y="2.171"/><use xlink:href="#8" y="6.513"/><use xlink:href="#15" y="8.684"/><use xlink:href="#19" y="10.855"/><use xlink:href="#20" y="15.197"/><use xlink:href="#21" y="19.539"/><use xlink:href="#15" y="21.71"/><use xlink:href="#19" y="23.881"/><use xlink:href="#22" y="28.223"/><use xlink:href="#21" y="32.565"/><use xlink:href="#23" y="34.736"/><use xlink:href="#19" y="36.907"/></svg><svg x="4185"><use xlink:href="#a"/><use xlink:href="#b" x="-.004" y="41.224"/><use xlink:href="#8" y="2.171"/><use xlink:href="#15" y="4.342"/><use xlink:href="#19" y="6.513"/><use xlink:href="#20" y="10.855"/><use xlink:href="#21" y="15.197"/><use xlink:href="#15" y="17.368"/><use xlink:href="#19" y="19.539"/><use xlink:href="#22" y="23.881"/><use xlink:href="#21" y="28.223"/><use xlink:href="#23" y="30.394"/><use xlink:href="#19" y="32.565"/><use xlink:href="#24" y="36.907"/><use xlink:href="#25" y="39.078"/></svg><svg x="4278"><use xlink:href="#a"/><use xlink:href="#b" x="-.004" y="41.224"/><use xlink:href="#8" y="2.171"/><use xlink:href="#15" y="4.342"/><use xlink:href="#19" y="6.513"/><use xlink:href="#20" y="10.855"/><use xlink:href="#21" y="15.197"/><use xlink:href="#15" y="17.368"/><use xlink:href="#19" y="19.539"/><use xlink:href="#22" y="23.881"/><use xlink:href="#21" y="28.223"/><use xlink:href="#23" y="30.394"/><use xlink:href="#19" y="32.565"/><use xlink:href="#24" y="36.907"/><use xlink:href="#25" y="39.078"/></svg><svg x="4371"><use xlink:href="#a"/><use xlink:href="#b" x="-.004" y="41.224"/><use xlink:href="#8" y="2.171"/><use xlink:href="#15" y="4.342"/><use xlink:href="#19" y="6.513"/><use xlink:href="#20" y="10.855"/><use xlink:href="#21" y="15.197"/><use xlink:href="#15" y="17.368"/><use xlink:href="#19" y="19.539"/><use xlink:href="#22" y="23.881"/><use xlink:href="#21" y="28.223"/><use xlink:href="#23" y="30.394"/><use xlink:href="#19" y="32.565"/><use xlink:href="#24" y="36.907"/><use xlink:href="#25" y="39.078"/></svg><svg x="4464"><use xlink:href="#a"/><use xlink:href="#b" x="27.996" y="41.224"/><use xlink:href="#8" y="2.171"/><use xlink:href="#15" y="4.342"/><use xlink:href="#19" y="6.513"/><use xlink:href="#20" y="10.855"/><use xlink:href="#21" y="15.197"/><use xlink:href="#15" y="17.368"/><use xlink:href="#19" y="19.539"/><use xlink:href="#22" y="23.881"/><use xlink:href="#21" y="28.223"/><use xlink:href="#23" y="30.394"/><use xlink:href="#19" y="32.565"/><use xlink:href="#24" y="36.907"/><use xlink:href="#25" y="39.078"/><use xlink:href="#1" y="41.249"/></svg><svg x="4557"><use xlink:href="#a"/><use xlink:href="#b" x="27.996" y="41.224"/><use xlink:href="#8" y="2.171"/><use xlink:href="#15" y="4.342"/><use xlink:href="#19" y="6.513"/><use xlink:href="#20" y="10.855"/><use xlink:href="#21" y="15.197"/><use xlink:href="#15" y="17.368"/><use xlink:href="#19" y="19.539"/><use xlink:href="#22" y="23.881"/><use xlink:href="#21" y="28.223"/><use xlink:href="#23" y="30.394"/><use xlink:href="#19" y="32.565"/><use xlink:href="#24" y="36.907"/><use xlink:href="#25" y="39.078"/><use xlink:href="#1" y="41.249"/></svg><svg x="4650"><use xlink:href="#a"/><use xlink:href="#b" x="-.004" y="41.224"/><use xlink:href="#8"/><use xlink:href="#15" y="2.171"/><use xlink:href="#19" y="4.342"/><use xlink:href="#20" y="8.684"/><use xlink:href="#21" y="13.026"/><use xlink:href="#15" y="15.197"/><use xlink:href="#19" y="17.368"/><use xlink:href="#22" y="21.71"/><use xlink:href="#21" y="26.052"/><use xlink:href="#23" y="28.223"/><use xlink:href="#19" y="30.394"/><use xlink:href="#24" y="34.736"/><use xlink:href="#25" y="36.907"/><use xlink:href="#1" y="39.078"/></svg></svg></g></g></svg></svg>